Coordinates
version=1
nRows=24
nColumns=34
inDegrees=no

Units are S.I. units (second, meters, Newtons, ...)
If the header above contains a line with 'inDegrees', this indicates whether rotational values are in degrees (yes) or radians (no).

endheader
time	pelvis_tilt	pelvis_list	pelvis_rotation	pelvis_tx	pelvis_ty	pelvis_tz	hip_flexion_r	hip_adduction_r	hip_rotation_r	knee_angle_r	ankle_angle_r	subtalar_angle_r	mtp_angle_r	hip_flexion_l	hip_adduction_l	hip_rotation_l	knee_angle_l	ankle_angle_l	subtalar_angle_l	mtp_angle_l	lumbar_extension	lumbar_bending	lumbar_rotation	arm_flex_r	arm_add_r	arm_rot_r	elbow_flex_r	pro_sup_r	arm_flex_l	arm_add_l	arm_rot_l	elbow_flex_l	pro_sup_l
0.9	0.0593833	0.0952762	0.00755787	0.994044	1.05902	-0.222779	0.506264	-0.155666	-0.0162332	0.996625	0.0447552	-0.225295	-0.0219022	-0.0759718	0.159784	0.126018	0.0440655	0.131808	-0.0175808	-0.0219032	-0.176522	-0.101321	-0.133292	-0.0623261	-0.158687	0.0891306	0.472687	1.72038	0.171947	-0.290365	0.175362	0.750855	1.60317
0.91	0.0609697	0.0889895	0.0123425	1.00526	1.0587	-0.222739	0.499897	-0.146769	-0.0204857	0.930259	0.0522716	-0.205809	-0.0219009	-0.0879873	0.152346	0.127557	0.0499892	0.149453	-0.0110339	-0.0219019	-0.180292	-0.0933398	-0.137647	-0.0686836	-0.159043	0.0891262	0.461783	1.71749	0.185122	-0.292661	0.168904	0.767378	1.59852
0.92	0.0625723	0.0826606	0.0164094	1.0166	1.05821	-0.222611	0.490726	-0.137662	-0.0247949	0.858392	0.055718	-0.183803	-0.0218996	-0.100171	0.14469	0.127398	0.055873	0.167623	-0.00294154	-0.0219006	-0.183768	-0.0853782	-0.141004	-0.0752743	-0.159542	0.0886389	0.451879	1.71363	0.197464	-0.294692	0.16338	0.784153	1.59312
0.93	0.0641854	0.0763586	0.0198668	1.02808	1.05757	-0.222401	0.478781	-0.128472	-0.0295429	0.781386	0.054774	-0.159596	-0.0218983	-0.112647	0.136918	0.125725	0.0615463	0.186117	0.00654403	-0.0218993	-0.186938	-0.077535	-0.143483	-0.082114	-0.160115	0.0874245	0.443004	1.70898	0.208904	-0.296492	0.158792	0.801148	1.58724
0.94	0.0658276	0.0701404	0.0228496	1.03972	1.05677	-0.222119	0.464172	-0.119303	-0.0351345	0.69991	0.0496492	-0.133495	-0.021897	-0.125546	0.129096	0.12275	0.0668739	0.204768	0.0172568	-0.021898	-0.189818	-0.0698816	-0.145235	-0.0892023	-0.160687	0.085245	0.435152	1.7038	0.219376	-0.298106	0.155108	0.818334	1.58119
0.95	0.067511	0.0640474	0.0255026	1.05153	1.05581	-0.221767	0.447162	-0.110222	-0.0418987	0.615019	0.0411404	-0.105799	-0.0218957	-0.138953	0.121253	0.118673	0.0717889	0.223461	0.0290429	-0.0218967	-0.19242	-0.062456	-0.146432	-0.0965134	-0.161188	0.0819285	0.428284	1.69843	0.228814	-0.299584	0.152258	0.835678	1.57529
0.96	0.0692163	0.058112	0.0279602	1.06352	1.05469	-0.221354	0.428234	-0.101256	-0.0499793	0.528209	0.0305681	-0.0768256	-0.0218944	-0.152853	0.113386	0.113668	0.0763195	0.242143	0.0417652	-0.0218954	-0.194734	-0.0552668	-0.147249	-0.103987	-0.161566	0.0774156	0.422326	1.69317	0.237158	-0.300979	0.150138	0.853144	1.56988
0.97	0.0708827	0.0523632	0.0303285	1.07568	1.0534	-0.220879	0.40813	-0.0924096	-0.0592439	0.441432	0.0196076	-0.046969	-0.0218931	-0.167091	0.105487	0.107874	0.0806033	0.260809	0.0552848	-0.0218941	-0.196701	-0.0483044	-0.147845	-0.111526	-0.161789	0.0717823	0.417173	1.68829	0.244365	-0.302338	0.148618	0.870681	1.56525
0.98	0.0724004	0.0468201	0.0326675	1.08801	1.05193	-0.220352	0.387842	-0.0836933	-0.0692448	0.35705	0.0100466	-0.0167531	-0.0218919	-0.181375	0.0975612	0.101412	0.0848858	0.279476	0.0694244	-0.0218928	-0.198231	-0.0415597	-0.148349	-0.11899	-0.161854	0.0652316	0.412704	1.68394	0.250419	-0.303695	0.147555	0.888221	1.56163
0.99	0.073621	0.0414948	0.0349832	1.10047	1.05029	-0.21978	0.368532	-0.0751489	-0.0792626	0.277701	0.003522	0.0131523	-0.0218906	-0.195306	0.0896459	0.0944089	0.0895025	0.298147	0.0839333	-0.0218915	-0.19922	-0.0350288	-0.14884	-0.12621	-0.161787	0.0580575	0.408789	1.68016	0.255337	-0.305059	0.146806	0.905664	1.55918
1	0.0743975	0.0363921	0.0372322	1.11303	1.0485	-0.219164	0.351389	-0.0668586	-0.0884385	0.206072	0.00128056	0.0419769	-0.0218893	-0.208451	0.0818022	0.0870064	0.0948457	0.316782	0.0984784	-0.0218902	-0.199593	-0.0287025	-0.149338	-0.132994	-0.161639	0.0505929	0.405303	1.67693	0.259176	-0.306402	0.146235	0.922881	1.55797
1.01	0.0746296	0.0314917	0.0393354	1.12565	1.04657	-0.218501	0.337441	-0.0589289	-0.0959702	0.144578	0.00399999	0.0689585	-0.021888	-0.220407	0.0740945	0.0793549	0.101323	0.335279	0.112671	-0.0218889	-0.199335	-0.0225508	-0.149811	-0.139146	-0.16148	0.043158	0.402139	1.67416	0.262017	-0.307657	0.145714	0.939717	1.55797
1.02	0.0742892	0.0267281	0.0412036	1.13831	1.04456	-0.217789	0.327348	-0.0514459	-0.101308	0.0949871	0.0116822	0.093472	-0.0218867	-0.230881	0.0665513	0.0715833	0.109318	0.353477	0.126131	-0.0218876	-0.198502	-0.0164994	-0.150192	-0.144496	-0.161393	0.0360181	0.39921	1.67173	0.263944	-0.308711	0.145116	0.956	1.5591
1.03	0.0734323	0.0219868	0.0427719	1.15097	1.04251	-0.217026	0.321212	-0.044408	-0.104271	0.0580561	0.02362	0.115108	-0.0218854	-0.239732	0.0591189	0.0637559	0.119152	0.371166	0.138578	-0.0218863	-0.197224	-0.0104058	-0.150398	-0.148927	-0.16146	0.0293582	0.396455	1.66954	0.265022	-0.309419	0.144313	0.971557	1.5612
1.04	0.0722019	0.0171022	0.0440317	1.16366	1.0405	-0.216215	0.318488	-0.0376737	-0.105036	0.0333099	0.0384407	0.13365	-0.0218841	-0.246985	0.0516363	0.0558471	0.13106	0.388099	0.149886	-0.021885	-0.195662	-0.00405777	-0.150364	-0.152396	-0.16175	0.0232756	0.393838	1.6675	0.26527	-0.309619	0.143186	0.986224	1.56413
1.05	0.0708042	0.0118658	0.0450437	1.17641	1.03859	-0.21536	0.318057	-0.0309583	-0.104027	0.0191395	0.0542557	0.148967	-0.0218829	-0.252812	0.0438469	0.0477661	0.145166	0.403976	0.160059	-0.0218837	-0.193975	0.00279895	-0.150056	-0.154949	-0.162307	0.0177944	0.391349	1.66554	0.264651	-0.309157	0.141637	0.99985	1.56774
1.06	0.0694918	0.00603796	0.045919	1.18927	1.03682	-0.214466	0.318508	-0.0238713	-0.101789	0.0132203	0.0689368	0.160924	-0.0218816	-0.257504	0.0354226	0.0393795	0.161488	0.418437	0.169184	-0.0218824	-0.192312	0.0104378	-0.149478	-0.156694	-0.163151	0.012892	0.388996	1.66363	0.263082	-0.307906	0.139604	1.0123	1.57189
1.07	0.0685329	-0.000629742	0.0467912	1.2023	1.03524	-0.213533	0.318428	-0.0159728	-0.0988846	0.0129975	0.0804413	0.169352	-0.0218803	-0.261415	0.0259988	0.0305282	0.179969	0.431059	0.177391	-0.0218811	-0.190811	0.019127	-0.148667	-0.157772	-0.164283	0.00852896	0.386815	1.6618	0.26045	-0.305785	0.13707	1.02346	1.57645
1.08	0.0681763	-0.00837007	0.0477883	1.21555	1.03391	-0.212564	0.316651	-0.00683579	-0.0958117	0.0160936	0.0871091	0.174091	-0.021879	-0.264893	0.015209	0.0210343	0.200513	0.44137	0.184821	-0.0218798	-0.189584	0.029103	-0.147678	-0.158332	-0.165688	0.00467329	0.384855	1.66006	0.256642	-0.302769	0.134071	1.03321	1.58129
1.09	0.0686074	-0.0173733	0.049014	1.22906	1.03286	-0.211553	0.312407	0.00389466	-0.0929449	0.0205737	0.0878736	0.175068	-0.0218777	-0.268193	0.00272025	0.010705	0.223048	0.448866	0.191611	-0.0218785	-0.188692	0.0405439	-0.146568	-0.158506	-0.16734	0.00131745	0.383182	1.65845	0.251569	-0.298881	0.130699	1.04145	1.58628
1.1	0.0699112	-0.027761	0.0505323	1.24285	1.0321	-0.210487	0.305374	0.0164539	-0.0904995	0.0250624	0.0823615	0.172367	-0.0218764	-0.271405	-0.0117381	-0.000657626	0.247577	0.453042	0.197896	-0.0218772	-0.188126	0.0535458	-0.145388	-0.158404	-0.169208	-0.00151306	0.381864	1.65702	0.245182	-0.294193	0.1271	1.04806	1.59128
1.11	0.0720422	-0.0395681	0.0523569	1.25692	1.03164	-0.209355	0.295661	0.0309299	-0.0885162	0.0287412	0.0708809	0.166251	-0.0218751	-0.274389	-0.0283534	-0.0132317	0.274234	0.453421	0.203797	-0.0218759	-0.187775	0.0681034	-0.144162	-0.158104	-0.171261	-0.00376076	0.380965	1.6558	0.237492	-0.288806	0.123455	1.05292	1.59615
1.12	0.0748029	-0.0527382	0.0544482	1.27123	1.03145	-0.208148	0.283727	0.0472578	-0.0868713	0.0312648	0.0543223	0.157147	-0.0218738	-0.276741	-0.0472171	-0.0271317	0.303307	0.449577	0.209412	-0.0218746	-0.187426	0.0841039	-0.142884	-0.157658	-0.173461	-0.00534716	0.380543	1.65483	0.228569	-0.282842	0.119965	1.05589	1.60074
1.13	0.0778371	-0.0671339	0.0567147	1.28574	1.03151	-0.206853	0.270284	0.0652371	-0.0853125	0.0326398	0.0340065	0.145591	-0.0218726	-0.277796	-0.0683211	-0.0423484	0.335246	0.441157	0.214775	-0.0218733	-0.186772	0.101335	-0.141508	-0.157088	-0.175774	-0.00619127	0.38064	1.6541	0.218547	-0.276426	0.116831	1.05686	1.60494
